HIERARCHY
ROOT Hips
{
	OFFSET -3.958830 18.904000 13.208200
	CHANNELS 6 Xposition Yposition Zposition Zrotation Yrotation Xrotation 
	JOINT LHipJoint
	{
		OFFSET 0.000000 0.000000 0.000000
		CHANNELS 3 Zrotation Yrotation Xrotation
		JOINT LeftUpLeg
		{
			OFFSET 1.800000 -1.400000 0.085000
			CHANNELS 3 Zrotation Yrotation Xrotation
			JOINT LeftLeg
			{
				OFFSET 2.215000 -6.000000 0.000000
				CHANNELS 3 Zrotation Yrotation Xrotation
				JOINT LeftFoot
				{
					OFFSET 2.500000 -6.900000 0.000000
					CHANNELS 3 Zrotation Yrotation Xrotation
					JOINT LeftToeBase
					{
						OFFSET 0.200000 -0.500000 1.950000
						CHANNELS 3 Zrotation Yrotation Xrotation
						End Site
						{
							OFFSET 0.000000 0.000000 0.000000
						}
					}
				}
			}
		}
	}
	JOINT RHipJoint
	{
		OFFSET 0.000000 0.000000 0.000000
		CHANNELS 3 Zrotation Yrotation Xrotation
		JOINT RightUpLeg
		{
			OFFSET -1.800000 -1.400000 0.085000
			CHANNELS 3 Zrotation Yrotation Xrotation
			JOINT RightLeg
			{
				OFFSET -2.215000 -6.000000 0.000000
				CHANNELS 3 Zrotation Yrotation Xrotation
				JOINT RightFoot
				{
					OFFSET -2.500000 -6.900000 0.000000
					CHANNELS 3 Zrotation Yrotation Xrotation
					JOINT RightToeBase
					{
						OFFSET -0.200000 -0.500000 1.950000
						CHANNELS 3 Zrotation Yrotation Xrotation
						End Site
						{
							OFFSET 0.000000 0.000000 0.000000
						}
					}
				}
			}
		}
	}
	JOINT LowerBack
	{
		OFFSET 0.000000 0.000000 0.000000
		CHANNELS 3 Zrotation Yrotation Xrotation
		JOINT Spine
		{
			OFFSET -0.087000 1.940000 -0.288900
			CHANNELS 3 Zrotation Yrotation Xrotation
			JOINT Spine1
			{
				OFFSET 0.000000 1.950000 0.060000
				CHANNELS 3 Zrotation Yrotation Xrotation
				JOINT Neck
				{
					OFFSET 0.000000 0.000000 0.000000
					CHANNELS 3 Zrotation Yrotation Xrotation
					JOINT Neck1
					{
						OFFSET 0.000000 1.600000 0.340000
						CHANNELS 3 Zrotation Yrotation Xrotation
						JOINT Head
						{
							OFFSET 0.000000 1.667000 -0.240000
							CHANNELS 3 Zrotation Yrotation Xrotation
							End Site
							{
								OFFSET 0.000000 0.000000 0.000000
							}
						}
					}
				}
				JOINT LeftShoulder
				{
					OFFSET 0.000000 0.000000 0.000000
					CHANNELS 3 Zrotation Yrotation Xrotation
					JOINT LeftArm
					{
						OFFSET 2.700000 1.550000 -0.730000
						CHANNELS 3 Zrotation Yrotation Xrotation
						JOINT LeftForeArm
						{
							OFFSET 5.450000 0.000000 0.000000
							CHANNELS 3 Zrotation Yrotation Xrotation
							JOINT LeftHand
							{
								OFFSET 3.450000 0.000000 0.000000
								CHANNELS 3 Zrotation Yrotation Xrotation
								JOINT LeftHandIndex1
								{
									OFFSET 0.750000 0.000000 0.000000
									CHANNELS 3 Zrotation Yrotation Xrotation
									End Site
									{
										OFFSET 0.000000 0.000000 0.000000
									}
								}
							}
						}
					}
				}
				JOINT RightShoulder
				{
					OFFSET 0.000000 0.000000 0.000000
					CHANNELS 3 Zrotation Yrotation Xrotation
					JOINT RightArm
					{
						OFFSET -2.700000 1.550000 -0.730000
						CHANNELS 3 Zrotation Yrotation Xrotation
						JOINT RightForeArm
						{
							OFFSET -5.450000 0.000000 0.000000
							CHANNELS 3 Zrotation Yrotation Xrotation
							JOINT RightHand
							{
								OFFSET -3.450000 0.000000 0.000000
								CHANNELS 3 Zrotation Yrotation Xrotation
								JOINT RightHandIndex1
								{
									OFFSET -0.750000 0.000000 0.000000
									CHANNELS 3 Zrotation Yrotation Xrotation
									End Site
									{
										OFFSET 0.000000 0.000000 0.000000
									}
								}
							}
						}
					}
				}
			}
		}
	}
}
MOTION
Frames: 14
Frame Time: 0.016667
-0.053880 17.406370 -2.162060 8.561793 -14.220160 1.309494 -15.627114 11.813946 5.947068 1.967317 -10.264226 -48.165856 -7.719935 2.292652 1.173366 -0.580216 1.990122 3.951806 0.284250 -0.063000 0.242490 17.950683 -10.312638 1.915963 -4.156360 1.278856 -16.431177 -0.700993 -3.788223 20.304818 -0.091802 -2.986970 3.519241 -0.107450 0.237570 0.259450 -2.328018 -2.302807 -8.706627 -6.203127 5.694054 20.235679 2.682135 5.159047 3.646975 1.489437 -4.135234 -16.032009 -11.266123 2.266395 43.017437 -3.209600 0.200500 -4.144870 5.329924 -33.642253 3.044568 13.143739 -27.871006 -2.904052 7.153892 -25.444621 0.559656 -3.612649 2.884222 0.509450 0.106280 0.050630 0.234450 -6.369774 41.469723 4.358521 -2.054239 33.607603 -6.137725 -27.645021 30.755177 -6.746161 2.240599 -1.400432 -0.121150 0.132960 -0.081250 -0.113480 
-0.050410 17.341750 -2.186810 8.421696 -13.722230 0.696594 -15.599166 11.829661 5.843460 1.350632 -10.018344 -46.306429 -7.610533 1.669508 -2.865420 -0.625756 1.986316 3.979460 0.295040 -0.037830 0.246670 17.963686 -10.368640 1.909554 -4.096056 1.255829 -15.928075 -0.578574 -3.908676 20.979625 -0.102534 -3.129244 3.466206 -0.060320 0.265570 0.252550 -2.387441 -2.208601 -8.690936 -5.257470 5.445615 20.702179 1.656937 5.363390 5.006246 1.682390 -3.899272 -15.710631 -10.472173 1.751906 42.509647 -3.841190 0.025200 -4.543920 6.327216 -34.493316 2.722950 14.500759 -28.489628 -3.305082 8.748874 -21.940704 0.013594 -3.720373 2.817546 0.488680 0.138500 0.027010 0.234750 -7.931172 42.191315 2.997085 -4.037314 33.779196 -6.168726 -25.581730 26.130075 -5.627467 2.312819 -1.444788 -0.145760 0.168040 -0.071920 -0.117620 
-0.058830 17.224540 -2.232900 8.613999 -12.665657 0.364619 -15.602632 11.735490 5.834964 0.441073 -10.219906 -45.485713 -7.551388 1.102144 -6.621201 -0.661342 2.053702 3.986019 0.321960 -0.014260 0.268230 17.977941 -10.366756 1.869524 -4.021178 1.443929 -16.373367 -0.510402 -4.091411 22.986839 -0.123055 -3.362102 3.374051 -0.013600 0.295730 0.267310 -2.425421 -2.072259 -8.656443 -5.113987 5.527725 21.375624 1.166228 5.579423 5.899583 1.782258 -3.264458 -15.048670 -8.566704 0.605939 40.884213 -4.666880 -0.335880 -5.012420 7.831036 -35.044474 2.222187 18.733219 -27.791642 -4.343204 8.346926 -20.630950 0.161410 -3.803810 2.797479 0.466830 0.181240 -0.000180 0.242430 -9.840906 42.396350 1.249226 -7.561857 33.775978 -6.490175 -22.453872 20.571939 -4.208974 2.387539 -1.498598 -0.163730 0.185980 -0.071880 -0.127440 
-0.063280 17.094470 -2.280740 8.043618 -12.014280 0.614530 -15.584108 11.627304 5.923949 0.533009 -10.367582 -46.893595 -7.427677 1.101005 -6.695674 -0.637155 2.000189 3.994124 0.341900 0.029470 0.257030 18.020224 -10.316071 1.925396 -2.700956 1.896453 -17.671514 -1.267976 -4.021673 25.844396 -0.163747 -3.560200 3.295587 0.002730 0.284420 0.271100 -2.532149 -1.996549 -8.711690 -3.728485 4.951631 22.744770 0.297002 5.421504 5.458185 2.104301 -3.679798 -14.964337 -8.958534 0.473664 39.553360 -4.539130 -0.646690 -5.487830 9.336545 -35.000453 2.198409 21.362587 -26.267408 -5.199642 8.721122 -20.710776 0.206395 -3.795816 2.847523 0.442200 0.175820 0.007480 0.258200 -12.052380 42.592813 -0.226563 -11.491114 33.800087 -7.180372 -19.973346 17.232832 -3.225988 2.462254 -1.523569 -0.137000 0.169360 -0.091630 -0.106430 
-0.067640 16.978820 -2.320590 7.606419 -12.266218 0.263117 -15.578421 11.624433 5.974800 1.457148 -10.143365 -48.480709 -8.026621 1.577732 -3.700245 -0.639442 2.015994 3.971492 0.337690 0.023910 0.254110 18.039134 -10.248021 2.013016 -1.309050 2.520759 -18.725219 -2.761012 -3.718063 29.357761 -0.229754 -3.836115 3.193847 -0.006220 0.269260 0.259470 -2.570149 -2.076859 -8.737719 -2.930578 4.887088 24.892153 0.281213 5.637477 4.743063 2.237812 -4.259118 -15.170866 -9.876880 0.523314 38.929661 -4.346730 -0.884490 -6.331460 10.127873 -34.715269 2.255194 23.494063 -24.192844 -6.149031 9.627193 -23.102031 0.208489 -3.748267 2.893481 0.465950 0.151170 0.020460 0.257290 -13.030355 43.105084 -0.615371 -14.262581 33.272119 -8.935214 -20.990764 16.915176 -3.371437 2.504753 -1.519616 -0.141970 0.175520 -0.093020 -0.108620 
-0.085710 16.893260 -2.327210 7.115812 -13.281977 0.171098 -15.594137 11.639221 6.007982 3.022351 -9.596236 -49.996070 -9.118399 2.357523 0.485375 -0.583056 2.179107 3.875224 0.313040 -0.018460 0.249020 18.039577 -10.128548 2.147981 0.292704 3.271292 -19.658584 -4.362549 -3.194282 32.214690 -0.299671 -4.051843 3.116548 -0.062790 0.229720 0.260120 -2.543490 -2.219057 -8.793060 -2.620915 5.363015 26.441978 0.940192 6.217008 3.360724 2.259976 -4.866614 -15.538509 -11.346424 0.725497 39.773276 -4.287490 -1.033440 -6.537020 9.792795 -34.185197 2.412095 24.545050 -22.978240 -6.771495 10.447613 -27.256327 0.259661 -3.657153 2.973932 0.503430 0.107170 0.049610 0.241180 -12.504121 43.622497 0.199804 -14.663969 32.732937 -10.556456 -25.367874 19.633085 -4.561347 2.537203 -1.513825 -0.124700 0.148540 -0.086930 -0.112780 
-0.107500 16.850090 -2.319600 6.542491 -14.517233 -0.157071 -15.590370 11.669106 5.963884 4.286390 -8.931473 -50.633562 -9.697087 3.356673 5.348083 -0.504365 2.437284 3.742929 0.334210 0.012310 0.272550 18.051443 -10.080758 2.279923 1.922011 3.747537 -19.881949 -6.187995 -2.468034 33.952879 -0.376015 -4.190130 3.067971 -0.078380 0.181970 0.262790 -2.556020 -2.223852 -8.805939 -2.217674 5.749345 27.442771 1.115213 6.801872 2.997956 2.237110 -5.033843 -15.536845 -11.989985 0.839481 40.868242 -4.291140 -0.999990 -7.311860 9.363946 -33.453635 2.638102 24.348172 -22.140903 -7.114984 12.365327 -31.661562 -0.136623 -3.570283 3.038162 0.516270 0.066630 0.095160 0.243300 -11.970101 43.401241 1.082965 -13.125988 32.226316 -11.461121 -31.213922 24.095084 -6.754052 2.542665 -1.530443 -0.086490 0.129550 -0.114370 -0.104130 
-0.131910 16.848150 -2.298570 6.197044 -15.453659 -0.791623 -15.549865 11.760439 5.809185 4.757948 -8.311270 -49.563597 -10.184369 4.210627 9.066792 -0.481822 2.759398 3.610141 0.359040 0.047880 0.294540 18.068869 -10.149175 2.372521 2.562899 3.961706 -19.431505 -6.620038 -2.256766 34.745605 -0.423752 -4.289809 3.037957 -0.058020 0.167990 0.246830 -2.620607 -2.101926 -8.765440 -1.602906 6.074255 27.962901 0.813042 7.404768 3.597363 2.010423 -5.090135 -15.191498 -12.442710 1.039111 42.239368 -3.979970 -1.143270 -8.352110 8.707322 -33.003356 2.639361 23.323853 -22.443461 -7.096561 13.325176 -35.294730 -0.516039 -3.512816 3.025871 0.534960 0.047100 0.115220 0.246780 -10.964317 43.159806 1.874343 -10.282324 32.259371 -11.839032 -37.038084 28.295439 -9.565176 2.505458 -1.503894 -0.089140 0.159540 -0.125070 -0.107470 
-0.164350 16.876930 -2.262950 5.991698 -16.037518 -1.493910 -15.483660 11.858343 5.581195 4.830519 -7.689186 -47.554770 -10.709316 4.983106 12.047504 -0.497142 3.119912 3.463993 0.396630 0.109470 0.300310 18.100006 -10.308473 2.434940 3.036607 3.889593 -18.376458 -6.979413 -2.059490 34.572170 -0.440661 -4.335108 3.020178 0.001540 0.187510 0.245010 -2.739958 -1.835499 -8.672759 -0.841709 6.223933 27.540221 0.119949 7.859543 5.494789 1.642531 -5.152142 -14.509264 -12.630897 1.315126 43.084287 -3.457060 -1.403830 -9.278560 8.378914 -32.597576 2.621034 20.137801 -23.194723 -6.956411 16.197443 -39.553471 -1.983557 -3.497645 3.006552 0.524310 0.065320 0.105410 0.249480 -10.175381 42.721406 2.223116 -6.522688 32.899272 -11.573815 -41.588892 30.964098 -12.294043 2.437109 -1.487649 -0.095300 0.196120 -0.115890 -0.106120 
-0.203710 16.935300 -2.215980 5.520017 -16.626556 -1.972348 -15.439813 11.997244 5.327138 4.941108 -7.044089 -45.313284 -10.798917 5.658358 14.597362 -0.515438 3.476799 3.340414 0.430540 0.160940 0.306940 18.113899 -10.422962 2.507222 3.886249 3.716702 -17.288813 -7.587303 -1.772231 34.045512 -0.456292 -4.339890 3.022584 0.059230 0.236540 0.251950 -2.797186 -1.713129 -8.576355 -0.265609 6.256730 26.320281 0.108346 8.043306 7.866741 1.263921 -5.332838 -13.904059 -13.163413 2.113736 44.226023 -3.309770 -1.189040 -9.545470 7.878991 -32.488651 2.724505 14.730994 -25.507009 -6.724604 22.688773 -41.170838 -5.267228 -3.533306 2.915175 0.509150 0.102200 0.091910 0.268870 -9.156853 42.530382 2.642345 -1.990509 34.315799 -10.750859 -45.577647 33.412369 -15.167245 2.341861 -1.440372 -0.111000 0.251430 -0.107760 -0.098980 
-0.241100 16.991430 -2.161480 4.946752 -16.588178 -1.070291 -15.416563 11.994184 5.204225 4.670196 -6.973823 -44.546788 -10.257000 6.213146 17.328941 -0.524998 3.790723 3.244934 0.417350 0.153020 0.295370 18.139543 -10.437525 2.604678 4.738021 3.830783 -17.825430 -7.569039 -1.734554 33.975757 -0.429929 -4.346275 3.030948 0.086550 0.295870 0.242190 -2.867951 -1.571619 -8.558650 0.222996 5.825190 23.625417 -0.057265 7.503040 9.601866 1.048237 -5.337686 -13.662081 -13.405427 2.876746 45.457707 -4.177280 -0.472520 -7.836630 7.564337 -32.080698 3.180444 7.636303 -27.871482 -6.078880 32.373719 -43.166316 -10.400727 -3.569262 2.783630 0.473550 0.159270 0.047000 0.276570 -8.563227 41.519896 3.520285 4.597103 36.753001 -8.489011 -49.742945 35.546135 -18.487792 2.194617 -1.363050 -0.146000 0.291430 -0.090730 -0.100580 
-0.279470 17.060120 -2.101930 4.559990 -16.127809 -0.300890 -15.346129 11.993589 5.025852 3.812081 -6.884694 -43.320888 -9.358543 6.539700 19.690394 -0.564652 4.016391 3.171485 0.446790 0.191950 0.291910 18.205631 -10.490218 2.712333 5.162302 4.137275 -18.539235 -6.901592 -1.938731 34.478923 -0.425073 -4.440873 2.984395 0.149900 0.337630 0.243520 -3.073319 -1.347208 -8.495403 1.561542 5.335093 21.310895 -1.005164 7.089540 11.616771 0.581070 -5.576974 -13.283776 -14.135414 3.069722 45.368166 -3.934660 -1.001540 -7.649190 7.371575 -30.594945 3.444913 -1.286678 -30.571876 -4.847675 43.074192 -46.852841 -17.589739 -3.537881 2.625023 0.443080 0.199580 0.006360 0.285650 -7.746841 39.575492 5.213873 12.407706 39.499589 -6.241294 -56.315976 38.242359 -23.887840 1.977964 -1.281262 -0.166140 0.318900 -0.080880 -0.100240 
-0.327860 17.133860 -2.045800 4.475277 -14.940164 -0.155234 -15.307494 12.115968 4.832887 2.347036 -6.891364 -41.548795 -8.186199 6.682062 21.989129 -0.583386 4.151094 3.122955 0.514390 0.268040 0.317130 18.229997 -10.516371 2.772334 5.076624 4.307136 -18.758266 -5.722880 -2.419808 35.182697 -0.465000 -4.549699 2.937443 0.209040 0.328650 0.240160 -3.164631 -1.388686 -8.388723 2.031843 4.853804 20.050411 -1.676346 6.586205 13.234631 0.311326 -5.844129 -13.209964 -15.320578 3.493754 45.999103 -2.923250 -1.734640 -9.080480 6.257429 -28.662688 3.981844 -10.629661 -32.823220 -3.224205 54.679655 -51.895423 -27.257247 -3.421771 2.361010 0.459780 0.183430 0.017110 0.308170 -6.313429 37.377634 6.972772 20.022413 41.582402 -4.113272 -61.773389 42.276862 -29.628072 1.736922 -1.120128 -0.164920 0.342470 -0.103630 -0.101180 
-0.371120 17.188640 -1.991970 3.968616 -13.514596 -0.152310 -15.270662 12.187546 4.597542 1.333965 -6.635619 -39.727101 -7.064164 6.885573 24.439046 -0.615684 4.386564 3.028717 0.591810 0.365790 0.357260 18.271347 -10.484776 2.889301 5.186822 4.994592 -19.411678 -4.256809 -3.136248 37.768105 -0.575601 -4.929426 2.787436 0.286420 0.313560 0.232760 -3.295313 -1.383252 -8.277680 3.082343 4.375947 19.308057 -2.158573 6.246498 15.025476 0.173584 -5.977591 -12.808539 -15.902779 3.464764 45.753928 -2.108230 -2.472510 -12.250270 5.203359 -25.976720 4.521497 -21.173439 -35.703382 -0.319453 67.165787 -56.687117 -39.683591 -3.318278 1.934388 0.493370 0.159850 0.042590 0.321230 -5.224716 34.336888 7.814590 28.097719 42.673643 -2.152426 -66.438332 47.633837 -35.884487 1.479551 -0.834753 -0.171650 0.393310 -0.119620 -0.108630 
